<?xml version="1.0" encoding="UTF-8"?>
<svg version="1.1" xmlns="http://www.w3.org/2000/svg" width="512" height="512">
<path d="M0 0 C2.16140752 1.65569358 4.20356624 3.38623452 6.25 5.1796875 C8.93596345 7.46591764 8.93596345 7.46591764 11.22924805 6.84350586 C11.98246338 6.57159424 12.73567871 6.29968262 13.51171875 6.01953125 C14.3713623 5.72264404 15.23100586 5.42575684 16.11669922 5.11987305 C17.04756348 4.78898682 17.97842773 4.45810059 18.9375 4.1171875 C27.08858886 1.37329013 35.20030025 -0.89550224 43.625 -2.6328125 C44.54885498 -2.82689697 45.47270996 -3.02098145 46.42456055 -3.22094727 C61.84166979 -6.2995061 76.88226052 -7.22863497 92.5625 -7.1953125 C93.52844086 -7.19476868 94.49438171 -7.19422485 95.48959351 -7.19366455 C119.56301709 -7.13154087 142.16782037 -3.79115617 165.25 3.1796875 C166.50272705 3.55601318 166.50272705 3.55601318 167.78076172 3.93994141 C183.32015064 8.72579005 199.69034136 15.13991508 213.25 24.1796875 C215.94675447 24.37225692 218.54120003 24.44953263 221.23803711 24.43505859 C222.05134995 24.43867905 222.86466278 24.4422995 223.70262146 24.44602966 C225.46886511 24.45292385 227.23513006 24.45542906 229.00138664 24.45408249 C231.79628323 24.45311847 234.59079395 24.46604423 237.38563538 24.48306274 C245.33184829 24.52937633 253.27802204 24.55394786 261.22436523 24.56054688 C266.08442918 24.56555647 270.94409038 24.58977774 275.80401802 24.62587357 C277.65676012 24.63568416 279.50955753 24.63799666 281.36231804 24.63270187 C283.95284056 24.62564565 286.54215962 24.64288265 289.13256836 24.66552734 C289.89893616 24.65735489 290.66530396 24.64918243 291.45489502 24.64076233 C294.74172235 24.69193673 296.9194353 24.97440641 299.73413086 26.72233582 C301.8327746 30.12441426 301.73831715 33.14173408 301.62133789 37.01147461 C301.61034058 38.19070244 301.61034058 38.19070244 301.59912109 39.39375305 C301.58167172 41.10167179 301.55558597 42.80951912 301.52189827 44.51719475 C301.47202677 47.24141635 301.45322945 49.96421294 301.44371033 52.68885803 C301.41376912 60.43552057 301.35080509 68.18097658 301.21264648 75.92651367 C300.14836511 105.56067804 300.14836511 105.56067804 311.89059448 132.07432556 C314.38113071 135.93151174 315.90561955 140.20490126 317.5 144.4921875 C317.86416016 145.45825928 318.22832031 146.42433105 318.60351562 147.41967773 C326.8109295 171.1258242 333.25811697 195.49924885 333.48828125 220.734375 C333.49802979 221.62553009 333.50777832 222.51668518 333.51782227 223.43484497 C333.6908488 243.35863428 333.45069645 262.61158491 329.25 282.1796875 C329.05744629 283.08992676 328.86489258 284.00016602 328.66650391 284.93798828 C326.52265858 294.77961742 323.62171863 304.23551833 320.27441406 313.72680664 C318.2161443 319.76372531 317.41933779 325.49921324 316.72265625 331.84375 C315.21639324 342.47473029 309.47262499 350.84591788 301.25 357.5546875 C297.22188336 360.91916807 294.84239614 364.70400721 292.14453125 369.16796875 C279.53556139 389.21233115 261.93686389 407.78406605 243.25 422.1796875 C242.11816623 423.08683629 240.98667586 423.99441365 239.85546875 424.90234375 C198.29110941 457.7044868 145.7281918 474.38656683 93.0625 474.4296875 C92.31633423 474.43036224 91.57016846 474.43103699 90.8013916 474.43173218 C50.88616532 474.37478342 12.39526019 463.98114017 -22.75 445.1796875 C-23.90628906 444.56609375 -25.06257813 443.9525 -26.25390625 443.3203125 C-40.92359069 435.24280707 -54.25535332 425.29141588 -66.75 414.1796875 C-67.49709229 413.52516602 -67.49709229 413.52516602 -68.25927734 412.85742188 C-92.1639541 391.88159242 -111.54662665 366.14129669 -124.75 337.1796875 C-125.11722168 336.37805176 -125.48444336 335.57641602 -125.86279297 334.75048828 C-152.89504534 275.16619028 -154.88269994 208.06082335 -132.14648438 146.70263672 C-127.44806061 134.84979496 -122.24276957 122.2827285 -114.734375 111.97265625 C-113.29511181 109.75252234 -112.71994244 108.69679538 -112.87451172 106.03759766 C-113.23966849 104.51847939 -113.65068003 103.0097815 -114.10253906 101.51416016 C-117.04293388 90.91232939 -115.6893666 76.86956257 -110.75 67.1796875 C-102.59418 53.23000528 -92.2472092 45.4473805 -76.75 41.1796875 C-76.09 41.1796875 -75.43 41.1796875 -74.75 41.1796875 C-74.79640625 40.59703125 -74.8428125 40.014375 -74.890625 39.4140625 C-75.45741982 26.53972293 -70.20024169 16.83174308 -62.09375 7.21484375 C-46.60793912 -9.47623072 -19.00071107 -12.57717523 0 0 Z " fill="#010101" transform="translate(162.75,22.8203125)"/>
<path d="M0 0 C0.7188909 0.3887861 1.43778179 0.77757219 2.17845726 1.17813969 C9.05956991 5.07009655 14.48965245 9.80995259 20.13134766 15.31225586 C21.09769888 16.24198189 22.06469847 17.17103441 23.0322876 18.09947205 C26.17453032 21.12264639 29.29594307 24.16681979 32.4140625 27.21484375 C32.94816349 27.73640399 33.48226447 28.25796423 34.03255033 28.79532933 C39.08452146 33.72991925 44.12877023 38.67227428 49.15415382 43.63394833 C55.53934433 49.93726407 61.96000521 56.19882185 68.43588603 62.40896696 C73.01180098 66.80347839 77.54189336 71.24213423 82.04147375 75.71475703 C84.71927736 78.37418402 87.41221592 81.0114316 90.15645218 83.60239983 C108.92117311 101.36715762 108.92117311 101.36715762 109.4775753 113.26594639 C109.36602223 117.00227677 109.02329339 120.61993871 108.42931747 124.30981636 C107.82684898 128.08499667 107.5056764 131.87643194 107.15430641 135.68179226 C105.02064281 155.77816351 97.41646331 176.67569099 84 192 C83.45859375 192.68320312 82.9171875 193.36640625 82.359375 194.0703125 C74.43568409 203.80830647 62.61226041 211.48463454 50 213 C47.60548619 213.08976127 45.20869012 213.13013653 42.8125 213.125 C41.60207031 213.12757813 40.39164063 213.13015625 39.14453125 213.1328125 C36 213 36 213 33 212 C17.75020176 210.25673281 7.69029784 213.64792068 -5.6640625 220.79052734 C-25.19219206 230.90155931 -50.12165472 231.99543776 -71.02294922 225.64599609 C-98.81026985 216.56656285 -120.66527299 195.635478 -134.16381836 170.08984375 C-138.47123737 161.4420492 -141.32495152 152.25870796 -144 143 C-144.2273584 142.23768066 -144.4547168 141.47536133 -144.68896484 140.68994141 C-150.28833601 121.28366579 -150.47039473 98.429333 -145 79 C-144.7215625 77.7934375 -144.443125 76.586875 -144.15625 75.34375 C-137.23783995 46.47728049 -119.32301573 18.75894124 -93.77880859 3.05126953 C-64.78770304 -14.0823704 -29.91034173 -16.82041327 0 0 Z " fill="#F9E7D6" transform="translate(212,99)"/>
<path d="M0 0 C59.4 0 118.8 0 180 0 C180 59.4 180 118.8 180 180 C172.12495458 173.24996107 172.12495458 173.24996107 169.43686008 170.56270123 C168.82029531 169.9487442 168.20373054 169.33478717 167.56848198 168.70222539 C166.58936573 167.71976306 166.58936573 167.71976306 165.59046936 166.717453 C164.87803383 166.00657746 164.1655983 165.29570192 163.43157381 164.5632847 C161.06016119 162.19584052 158.69231491 159.8248624 156.32446289 157.45385742 C154.61922556 155.74997591 152.91377574 154.04630703 151.20812988 152.34283447 C147.06756143 148.20634501 142.92932977 144.06752709 138.79225362 139.92754557 C135.43184438 136.56487433 132.07045596 133.2031848 128.70837212 129.84218788 C128.22918305 129.36315205 127.74999399 128.88411622 127.25628404 128.39056415 C126.28277601 127.41737585 125.30926574 126.44418979 124.33575325 125.47100595 C115.22229027 116.36038999 106.11188732 107.24671904 97.00253796 98.13199029 C89.18043272 90.30540912 81.35569731 82.48146553 73.52905273 74.65942383 C64.4367631 65.57247891 55.34608886 56.483923 46.2580089 47.39276773 C45.29031387 46.42475415 44.32261676 45.45674266 43.35491753 44.48873329 C42.87879136 44.01245285 42.4026652 43.53617242 41.91211097 43.04545924 C38.55064298 39.68312641 35.18801314 36.32195821 31.82493782 32.96123314 C27.30739562 28.44677874 22.7924926 23.92969592 18.27939606 19.41079712 C16.61771839 17.74779088 14.95517749 16.0856467 13.29173851 14.42440224 C11.03239882 12.16776999 8.77612182 9.90812106 6.52064514 7.64762878 C5.51810632 6.64843604 5.51810632 6.64843604 4.49531418 5.62905759 C0 1.1141505 0 1.1141505 0 0 Z " fill="#AC6542" transform="translate(236,96)"/>
<path d="M0 0 C3.65090501 2.9999358 6.96000535 6.26627504 10.23144531 9.671875 C11.11703125 10.54585937 11.11703125 10.54585937 12.02050781 11.4375 C19.43399538 19.28707507 24.96777799 30.1875211 27.23144531 40.671875 C27.43382812 41.5071875 27.63621094 42.3425 27.84472656 43.203125 C32.05012947 62.65668945 28.30768055 80.87177324 18.23144531 97.671875 C16.111281 100.91088434 13.83279729 103.80871672 11.23144531 106.671875 C10.25111328 107.78949219 10.25111328 107.78949219 9.25097656 108.9296875 C-0.15124457 119.03407815 -11.66265064 124.78105974 -24.76855469 128.671875 C-25.97511719 129.04119141 -25.97511719 129.04119141 -27.20605469 129.41796875 C-46.32509974 134.2309228 -65.0982594 129.33492607 -81.76855469 119.671875 C-84.98839457 117.54658434 -87.89503595 115.24291808 -90.76855469 112.671875 C-91.89003906 111.68960938 -91.89003906 111.68960938 -93.03417969 110.6875 C-105.25293656 99.29995108 -114.39799825 81.55386082 -115.03417969 64.59375 C-115.04291631 63.20314269 -115.03735836 61.81238262 -115.01855469 60.421875 C-115.00731567 59.31054199 -115.00731567 59.31054199 -114.99584961 58.17675781 C-114.60163907 37.83637471 -106.95350422 21.10097169 -92.76855469 6.671875 C-92.15367188 6.04410156 -91.53878906 5.41632813 -90.90527344 4.76953125 C-82.98266529 -2.71198951 -72.35712985 -8.7153597 -61.76855469 -11.328125 C-61.0634375 -11.53050781 -60.35832031 -11.73289062 -59.63183594 -11.94140625 C-39.67084528 -16.92318151 -16.47709307 -12.37374189 0 0 Z " fill="#FDB431" transform="translate(210.7685546875,133.328125)"/>
<path d="M0 0 C1.17288711 3.51866132 0.86052529 3.84764183 -0.625 7.0625 C-15.30314423 42.07598988 -12.89097076 82.49668275 0.71899414 117.39868164 C9.00240745 137.50897999 21.33045309 155.01945989 37.87890625 169.16796875 C40.02465472 171.02129477 42.0183708 172.9734359 44 175 C43.47599609 176.82724609 43.47599609 176.82724609 42.94140625 178.69140625 C42.48153393 180.31503709 42.02191178 181.93873879 41.5625 183.5625 C41.33240234 184.36236328 41.10230469 185.16222656 40.86523438 185.98632812 C33.63034937 211.67541257 38.1455799 237.61546246 50 261 C50.54527344 262.10085938 51.09054688 263.20171875 51.65234375 264.3359375 C63.6415591 286.67281303 87.00791294 303.70215045 110.87890625 311.12109375 C121.44174202 314.09560945 134.37219297 317.64683572 145.3046875 314.29296875 C147.59737995 312.54439456 148.14604299 310.70419721 149 308 C149.77601563 308.25394531 150.55203125 308.50789063 151.3515625 308.76953125 C171.96546047 315.59877647 171.96546047 315.59877647 193.3046875 314.29296875 C195.59737995 312.54439456 196.14604299 310.70419721 197 308 C197.77601563 308.25394531 198.55203125 308.50789063 199.3515625 308.76953125 C219.96546047 315.59877647 219.96546047 315.59877647 241.3046875 314.29296875 C243.59737995 312.54439456 244.14604299 310.70419721 245 308 C245.85980469 308.25394531 246.71960938 308.50789063 247.60546875 308.76953125 C257.92409416 311.77397289 268.29750976 314.75552439 279 316 C260.52987745 328.31341504 230.59992726 331.58336488 209 332 C207.93894043 332.02578125 206.87788086 332.0515625 205.78466797 332.078125 C189.5669101 332.42694087 173.95056269 332.04510742 158 329 C156.7934375 328.7834375 155.586875 328.566875 154.34375 328.34375 C150.86396794 327.66080212 147.43994604 326.86181238 144 326 C143.25911133 325.81630859 142.51822266 325.63261719 141.75488281 325.44335938 C102.87608373 315.6183921 68.82355198 295.64390788 40 268 C39.05125 267.10410156 38.1025 266.20820313 37.125 265.28515625 C29.98857171 258.38187831 23.93396099 250.92654568 18 243 C17.58395508 242.45537109 17.16791016 241.91074219 16.73925781 241.34960938 C-4.70817776 213.21792148 -19.66343343 178.02321534 -25 143 C-25.16918945 141.95199219 -25.16918945 141.95199219 -25.34179688 140.8828125 C-32.93027842 91.84954713 -21.94449244 43.80552308 0 0 Z " fill="#E6EBEE" transform="translate(59,148)"/>
<path d="M0 0 C5.1143671 -0.5807539 8.88260776 -0.28566324 13.03710938 2.84960938 C16.1719192 5.51576083 19.05434144 8.40757725 21.89135742 11.38574219 C23.67951881 13.25323682 25.51902671 15.05481534 27.37280273 16.85693359 C33.71639211 23.21418188 37.91593335 28.0297544 38.57543945 37.38525391 C38.57044434 38.08618164 38.56544922 38.78710938 38.56030273 39.50927734 C42.1295314 40.69902023 44.86324868 40.4990145 48.62280273 40.38427734 C59.00221854 40.26228373 67.65873134 42.50029087 75.56030273 49.50927734 C82.34271908 57.46955608 85.1183837 64.59234884 84.93920898 75.05615234 C84.10112494 82.6939492 80.79373249 90.32998587 75.50561523 95.97802734 C66.92207642 102.73454786 58.39743955 104.73376348 47.80834961 104.20654297 C44.16535989 104.12093747 42.18163149 104.09929821 39.07983398 106.14599609 C37.21514455 109.04609149 36.96249748 111.08214236 36.68530273 114.50927734 C35.59731259 122.9199142 32.6862975 130.95560388 26.43530273 136.94677734 C17.75980498 143.35827459 8.24481522 145.97874114 -2.43969727 144.50927734 C-5.75798494 143.59547197 -8.50540252 142.29439962 -11.43969727 140.50927734 C-12.13836914 140.09677734 -12.83704102 139.68427734 -13.55688477 139.25927734 C-20.98505298 134.32585242 -24.99704821 126.94763543 -27.43969727 118.50927734 C-27.66674805 115.44140625 -27.66674805 115.44140625 -27.63500977 112.23583984 C-27.62856445 111.08212891 -27.62211914 109.92841797 -27.61547852 108.73974609 C-27.5987207 107.54994141 -27.58196289 106.36013672 -27.56469727 105.13427734 C-27.55567383 103.92126953 -27.54665039 102.70826172 -27.53735352 101.45849609 C-27.51386315 98.47521961 -27.48101408 95.4923514 -27.43969727 92.50927734 C-22.63446414 96.49155679 -18.19373641 100.68177628 -13.87719727 105.18505859 C-12.65660081 106.43775046 -11.43522345 107.68968183 -10.21313477 108.94091797 C-8.31650418 110.887058 -6.42495717 112.8371807 -4.54614258 114.80053711 C-2.71198108 116.71354373 -0.85915274 118.60670456 0.99780273 120.49755859 C1.55218018 121.0860408 2.10655762 121.67452301 2.67773438 122.28083801 C6.43250117 126.06131997 9.03183506 127.34380677 14.56030273 127.50927734 C17.01467792 127.28268213 17.01467792 127.28268213 18.56030273 125.50927734 C19.62248369 122.26683023 20.05643924 120.76380112 19.56030273 117.50927734 C14.31759607 109.10841725 5.14593673 102.02091871 -1.87719727 95.07177734 C-4.4412281 92.53424812 -7.00198067 89.99347568 -9.56079102 87.45068359 C-10.44655067 86.57737144 -10.44655067 86.57737144 -11.35020447 85.68641663 C-12.73229036 84.31281669 -14.08892845 82.91368534 -15.43969727 81.50927734 C-15.43969727 81.17927734 -15.43969727 80.84927734 -15.43969727 80.50927734 C-14.47138977 80.50119049 -13.50308228 80.49310364 -12.50543213 80.48477173 C-3.38255164 80.40730598 5.74017978 80.31956557 14.86286545 80.22175026 C19.55299671 80.17179236 24.24310551 80.12546224 28.93334961 80.08740234 C33.45921517 80.05054319 37.98489253 80.00418145 42.51059723 79.95121384 C44.23773143 79.93267325 45.96490597 79.91756404 47.69210052 79.90593338 C50.11027827 79.88906516 52.52802532 79.860029 54.94604492 79.828125 C55.66102142 79.82596481 56.37599792 79.82380463 57.11264038 79.82157898 C60.72530878 79.76063942 63.54501706 79.60942179 66.56030273 77.50927734 C67.9458047 74.73827341 67.74804943 72.57580675 67.56030273 69.50927734 C65.83803777 66.26077757 65.83803777 66.26077757 62.56030273 65.50927734 C60.05186626 65.38980494 57.56902216 65.32405475 55.05957031 65.30395508 C53.91774544 65.28910568 53.91774544 65.28910568 52.75285339 65.2739563 C50.23687856 65.24237006 47.72088484 65.21759525 45.20483398 65.19287109 C43.46033742 65.17229908 41.71584581 65.15130254 39.97135925 65.12989807 C35.37977106 65.07470293 30.78813808 65.02528236 26.19647217 64.97705078 C21.51106784 64.92681711 16.82572857 64.87114078 12.14038086 64.81591797 C2.94707706 64.70836767 -6.24628323 64.60691572 -15.43969727 64.50927734 C-11.46295273 59.70616265 -7.27548581 55.28194561 -2.76391602 50.98193359 C-1.51107155 49.76605448 -0.25914477 48.5492292 0.99194336 47.33154297 C2.93682204 45.44229554 4.88616817 43.55907482 6.8515625 41.69116211 C8.76703859 39.86679694 10.65908659 38.02064385 12.54858398 36.16943359 C13.13706619 35.62021744 13.7255484 35.07100128 14.3318634 34.50514221 C17.26475234 31.59261241 18.90531155 29.42488229 19.56103516 25.28051758 C19.90883732 21.43132908 19.90883732 21.43132908 17.56030273 18.50927734 C14.37894252 17.52195866 12.75668978 17.07410874 9.56030273 17.50927734 C1.15821325 22.72203735 -5.93802738 31.933721 -12.87719727 38.94677734 C-15.41472649 41.51080818 -17.95549893 44.07156075 -20.49829102 46.63037109 C-21.08049911 47.22087753 -21.66270721 47.81138397 -22.26255798 48.41978455 C-23.63615792 49.80187044 -25.03528927 51.15850853 -26.43969727 52.50927734 C-26.76969727 52.50927734 -27.09969727 52.50927734 -27.43969727 52.50927734 C-27.55689069 48.19700989 -27.62728142 43.885158 -27.68969727 39.57177734 C-27.72321289 38.35941406 -27.75672852 37.14705078 -27.79125977 35.89794922 C-27.87174907 28.47281075 -27.24171723 22.94435122 -23.43969727 16.50927734 C-22.75327148 15.31238281 -22.75327148 15.31238281 -22.05297852 14.09130859 C-16.41569378 6.42256991 -9.26641314 1.93432781 0 0 Z " fill="#34A671" transform="translate(379.439697265625,271.49072265625)"/>
<path d="M0 0 C3.65090501 2.9999358 6.96000535 6.26627504 10.23144531 9.671875 C11.11703125 10.54585937 11.11703125 10.54585937 12.02050781 11.4375 C19.43399538 19.28707507 24.96777799 30.1875211 27.23144531 40.671875 C27.43382812 41.5071875 27.63621094 42.3425 27.84472656 43.203125 C32.05012947 62.65668945 28.30768055 80.87177324 18.23144531 97.671875 C16.111281 100.91088434 13.83279729 103.80871672 11.23144531 106.671875 C10.25111328 107.78949219 10.25111328 107.78949219 9.25097656 108.9296875 C-0.15124457 119.03407815 -11.66265064 124.78105974 -24.76855469 128.671875 C-25.97511719 129.04119141 -25.97511719 129.04119141 -27.20605469 129.41796875 C-46.32509974 134.2309228 -65.0982594 129.33492607 -81.76855469 119.671875 C-84.98839457 117.54658434 -87.89503595 115.24291808 -90.76855469 112.671875 C-91.89003906 111.68960938 -91.89003906 111.68960938 -93.03417969 110.6875 C-105.25293656 99.29995108 -114.39799825 81.55386082 -115.03417969 64.59375 C-115.04291631 63.20314269 -115.03735836 61.81238262 -115.01855469 60.421875 C-115.00731567 59.31054199 -115.00731567 59.31054199 -114.99584961 58.17675781 C-114.60163907 37.83637471 -106.95350422 21.10097169 -92.76855469 6.671875 C-92.15367188 6.04410156 -91.53878906 5.41632813 -90.90527344 4.76953125 C-82.98266529 -2.71198951 -72.35712985 -8.7153597 -61.76855469 -11.328125 C-61.0634375 -11.53050781 -60.35832031 -11.73289062 -59.63183594 -11.94140625 C-39.67084528 -16.92318151 -16.47709307 -12.37374189 0 0 Z M-84.76855469 20.671875 C-95.69595383 33.91253404 -99.97930094 48.45940557 -99.01123047 65.36767578 C-97.51951513 79.53146787 -89.41593027 93.56444302 -78.48730469 102.546875 C-64.93494807 112.49670644 -50.47011984 116.5226393 -33.76855469 114.671875 C-19.24219255 111.85404082 -5.90488785 103.86992614 2.91894531 91.984375 C12.051957 78.30570909 14.8893072 63.46755446 12.80175781 47.35546875 C9.56711283 32.36029355 0.64568302 19.67193117 -12.05371094 11.23828125 C-36.24550588 -2.71986231 -65.18040816 -0.14053069 -84.76855469 20.671875 Z " fill="#030302" transform="translate(210.7685546875,133.328125)"/>
<path d="M0 0 C0 10.56 0 21.12 0 32 C-3.96 32.99 -7.92 33.98 -12 35 C-27.02102883 41.26537106 -36.40303901 51.06940755 -43.3125 65.625 C-49.53569196 80.82240869 -48.10368667 96.08521709 -42 111 C-40.25934348 114.56064591 -38.32077672 117.79028824 -36 121 C-35.32517578 121.94746094 -35.32517578 121.94746094 -34.63671875 122.9140625 C-26.05398743 133.89028791 -13.17599389 139.07200136 0 142 C0 152.56 0 163.12 0 174 C-20.06560881 174 -37.04031843 164.78026545 -52 152 C-52.67417969 151.42765625 -53.34835937 150.8553125 -54.04296875 150.265625 C-70.31277673 135.22442952 -79.15870376 112.26048784 -80.2578125 90.55078125 C-80.61842009 79.52276617 -79.19134748 69.55241175 -76 59 C-75.71511719 58.03835938 -75.43023437 57.07671875 -75.13671875 56.0859375 C-74 54 -74 54 -72.07421875 53.25 C-71.28660156 53.1675 -70.49898438 53.085 -69.6875 53 C-50.71075442 50.01950249 -35.510521 38.46732749 -24.3125 23.3125 C-22.22338173 20.18906338 -20.43959054 16.96800593 -18.71875 13.6328125 C-18.32002686 12.86026123 -17.92130371 12.08770996 -17.51049805 11.29174805 C-16.72280874 9.74381897 -15.95031106 8.18804811 -15.19458008 6.62426758 C-14.65933716 5.55535278 -14.65933716 5.55535278 -14.11328125 4.46484375 C-13.80173096 3.821521 -13.49018066 3.17819824 -13.16918945 2.51538086 C-12 1 -12 1 -10.36791992 0.28344727 C-6.93516155 -0.12746442 -3.45726459 0 0 0 Z " fill="#E8413E" transform="translate(336,273)"/>
<path d="M0 0 C59.4 0 118.8 0 180 0 C180 59.4 180 118.8 180 180 C177.69 178.02 175.38 176.04 173 174 C172.13727698 173.32161261 171.27455397 172.64322521 170.38568783 171.94428062 C165.59669517 167.8418179 163.43811825 164.83522433 162.89320374 158.47109985 C162.85572408 155.91670422 162.86720745 153.36129026 162.91821289 150.80712891 C162.91415634 149.39195134 162.90611097 147.9767805 162.89440918 146.56164551 C162.87374776 142.74308084 162.90772892 138.926756 162.9513886 135.10845995 C162.98712621 131.10598125 162.970124 127.1037365 162.95835876 123.10116577 C162.94367965 115.52922082 162.97288978 107.95815128 163.01952976 100.38636053 C163.08632818 89.26046132 163.09252944 78.13448855 163.09185696 67.00841331 C163.09182912 66.19253105 163.09180129 65.37664878 163.09177262 64.53604281 C163.0916976 62.90968787 163.09150026 61.28333292 163.09117693 59.65697801 C163.0917957 54.89332928 163.10720723 50.13001367 163.13548005 45.36645055 C163.15182601 42.40980654 163.16060741 39.45316899 163.16797638 36.49649048 C163.17328824 35.1238256 163.18210975 33.75116924 163.19466209 32.37855148 C163.21146047 30.50809313 163.21504459 28.63752988 163.21791077 26.76699829 C163.22406938 25.71954752 163.23022799 24.67209675 163.23657322 23.59290504 C163.18610901 20.76262524 163.18610901 20.76262524 161 18 C157.81922863 16.93974288 155.64993948 16.90057791 152.31134033 16.94271851 C151.12566971 16.95460709 149.93999908 16.96649567 148.71839905 16.97874451 C147.41559494 16.99655472 146.11279083 17.01436493 144.77050781 17.03271484 C142.66560593 17.05547622 140.56068983 17.07627089 138.45576715 17.0970118 C136.96083711 17.11185375 135.46591282 17.12728532 133.97099447 17.14326262 C124.35609522 17.24424707 114.74085674 17.26834582 105.12551546 17.29638553 C95.7705168 17.32417718 86.41720107 17.37568806 77.06298828 17.50390625 C69.62863707 17.6056671 62.19609371 17.6535784 54.76102901 17.63969004 C50.83141921 17.6342901 46.90603627 17.65479292 42.97727203 17.74058151 C15.94192386 18.30416514 15.94192386 18.30416514 7.42699814 10.56733131 C0 2.60862961 0 2.60862961 0 0 Z " fill="#8B5136" transform="translate(268,64)"/>
<path d="M0 0 C0 0.33 0 0.66 0 1 C-1.73434296 1.00546844 -1.73434296 1.00546844 -3.50372314 1.01104736 C-14.39259331 1.04796597 -25.28117985 1.10570429 -36.16983414 1.18390274 C-41.76801996 1.22343572 -47.36604711 1.25559567 -52.96435547 1.27099609 C-58.36563507 1.28612427 -63.76647861 1.32050158 -69.16756439 1.36830902 C-71.22962405 1.38316247 -73.29174596 1.39104328 -75.35385895 1.39188385 C-78.23931029 1.39424333 -81.12354652 1.42124069 -84.00878906 1.45410156 C-84.86402664 1.4490712 -85.71926422 1.44404083 -86.60041809 1.43885803 C-90.39930958 1.50592942 -92.38283455 1.56171192 -95.54217529 3.80535889 C-97.35406675 6.5330198 -97.51866487 8.55732258 -96.93017578 11.76611328 C-94.9131991 16.61003365 -90.71947695 19.93651907 -86.9375 23.4375 C-85.2576081 25.03878564 -83.57913745 26.64156411 -81.90234375 28.24609375 C-81.15460693 28.94404053 -80.40687012 29.6419873 -79.63647461 30.36108398 C-78 32 -78 32 -78 33 C-84.70628403 33.32137268 -91.41311432 33.58596053 -98.12329102 33.81176758 C-100.40407564 33.89514971 -102.68442943 33.99137001 -104.96411133 34.10083008 C-108.24790996 34.2562465 -111.53050769 34.364911 -114.81640625 34.46484375 C-116.33712486 34.55184792 -116.33712486 34.55184792 -117.88856506 34.64060974 C-124.89137885 34.79043691 -124.89137885 34.79043691 -128.12643433 32.48387146 C-129.98022461 30.60498047 -129.98022461 30.60498047 -131.52012634 28.72433472 C-133.93243549 25.91353503 -136.66578632 24.77646121 -140 23.1875 C-141.155 22.62417969 -142.31 22.06085938 -143.5 21.48046875 C-146.99521649 20.00202338 -150.33647609 18.95793674 -154 18 C-154.20496094 16.80761719 -154.40992188 15.61523438 -154.62109375 14.38671875 C-154.89310807 12.82029147 -155.16525015 11.25388636 -155.4375 9.6875 C-155.57220703 8.90181641 -155.70691406 8.11613281 -155.84570312 7.30664062 C-155.97783203 6.54931641 -156.10996094 5.79199219 -156.24609375 5.01171875 C-156.42676392 3.96697388 -156.42676392 3.96697388 -156.61108398 2.90112305 C-157.00335799 0.7904669 -157.00335799 0.7904669 -158 -2 C-106.04566017 -20.22959292 -51.55248404 -19.06196292 0 0 Z " fill="#E6EBEF" transform="translate(338,47)"/>
<path d="M0 0 C-0.433125 1.73056641 -0.433125 1.73056641 -0.875 3.49609375 C-7.09128284 30.04526257 -5.21633196 55.59471161 7 80 C7.49628906 81.01835937 7.99257812 82.03671875 8.50390625 83.0859375 C11.9174869 89.72707261 16.19673372 95.30873491 21 101 C21.763125 102.010625 22.52625 103.02125 23.3125 104.0625 C26.68922233 107.75333603 30.45974358 110.75319534 34.37890625 113.8515625 C36.74164269 115.78823172 38.88443757 117.79981508 41 120 C20.00978018 119.05236028 0.00093975 108.16616088 -14.32421875 93.0234375 C-32.17594303 71.46820864 -37.83208762 48.43456145 -37 21 C-36.98767334 19.91187012 -36.98767334 19.91187012 -36.97509766 18.80175781 C-36.86528836 14.59856254 -36.30043542 11.54349581 -34 8 C-24.69583233 -0.20635614 -11.98114512 -3.99371504 0 0 Z " fill="#3CBF83" transform="translate(245,327)"/>
<path d="M0 0 C0.56396484 0.23187012 1.12792969 0.46374023 1.70898438 0.70263672 C4.30372542 1.76571551 6.90180392 2.82039513 9.5 3.875 C10.386875 4.23980469 11.27375 4.60460937 12.1875 4.98046875 C17.4141725 7.0941966 22.49464952 8.778018 28 10 C27.97905273 10.8751123 27.95810547 11.75022461 27.93652344 12.65185547 C27.27717601 44.40485926 31.03002277 73.62901401 53.9453125 97.89453125 C54.62335938 98.58933594 55.30140625 99.28414063 56 100 C56.825 100.86625 57.65 101.7325 58.5 102.625 C61.56935463 105.5408869 64.73151963 108.34129879 67.9140625 111.1328125 C69.67146006 112.70591369 71.35396568 114.3120285 73 116 C52.00978018 115.05236028 32.00093975 104.16616088 17.67578125 89.0234375 C0.31515675 68.06119159 -6.92823154 43.99056135 -5 17 C-2.91211242 2.91211242 -2.91211242 2.91211242 0 0 Z " fill="#3CBF83" transform="translate(117,331)"/>
<path d="M0 0 C6.63735238 4.71911047 11.29064891 11.56292208 13.3125 19.4375 C13.44724123 22.10537642 13.50447861 24.65396441 13.4375 27.3125 C13.42847656 28.00085938 13.41945313 28.68921875 13.41015625 29.3984375 C13.38682513 31.07827838 13.35096326 32.75793746 13.3125 34.4375 C12.76311768 34.49284912 12.21373535 34.54819824 11.64770508 34.60522461 C9.13987577 34.85931253 6.63244239 35.11712299 4.125 35.375 C2.82852539 35.50551758 2.82852539 35.50551758 1.50585938 35.63867188 C0.24418945 35.76918945 0.24418945 35.76918945 -1.04296875 35.90234375 C-1.81278076 35.980896 -2.58259277 36.05944824 -3.37573242 36.14038086 C-5.84320047 36.45751135 -8.25404493 36.92370786 -10.6875 37.4375 C-10.717229 36.46139771 -10.717229 36.46139771 -10.74755859 35.46557617 C-10.84279299 32.51830849 -10.95247818 29.57175115 -11.0625 26.625 C-11.0934375 25.60083984 -11.124375 24.57667969 -11.15625 23.52148438 C-11.19492188 22.53857422 -11.23359375 21.55566406 -11.2734375 20.54296875 C-11.3048584 19.63699951 -11.3362793 18.73103027 -11.36865234 17.79760742 C-11.54777919 15.17224608 -11.54777919 15.17224608 -13.6875 12.4375 C-17.6968115 11.37301399 -17.6968115 11.37301399 -21.6875 11.4375 C-24.49906344 13.62051522 -25.57431868 14.82947942 -26.23339844 18.37011719 C-26.2543457 19.48032227 -26.27529297 20.59052734 -26.296875 21.734375 C-26.32910156 22.93964844 -26.36132812 24.14492188 -26.39453125 25.38671875 C-26.40871094 26.64097656 -26.42289062 27.89523438 -26.4375 29.1875 C-26.48197266 31.09208984 -26.48197266 31.09208984 -26.52734375 33.03515625 C-26.59803951 36.16933485 -26.65074012 39.30276956 -26.6875 42.4375 C-27.20022461 42.69329834 -27.71294922 42.94909668 -28.24121094 43.21264648 C-37.92210869 48.07802378 -47.04367175 52.92878874 -55.4375 59.8203125 C-57.6875 61.4375 -57.6875 61.4375 -60.6875 61.4375 C-61.265 61.086875 -61.8425 60.73625 -62.4375 60.375 C-65.78446431 58.98043154 -68.22456922 59.60383148 -71.6875 60.4375 C-74.02659307 63.9461396 -74.10041057 65.30839433 -73.6875 69.4375 C-72.29864752 72.25530534 -72.29864752 72.25530534 -70.6875 74.4375 C-71.32365234 75.12972656 -71.32365234 75.12972656 -71.97265625 75.8359375 C-76.68294427 81.07419187 -80.75171026 86.59961127 -84.6875 92.4375 C-89.97339822 85.80421596 -91.27994448 78.7460327 -91.03515625 70.359375 C-90.03864536 61.98420486 -85.02660846 53.95085353 -78.51171875 48.67578125 C-71.86659045 44.06328043 -66.06969794 42.29533131 -58.0546875 41.68359375 C-55.84460606 41.45383281 -53.82446682 41.03329029 -51.6875 40.4375 C-51.05107843 35.19838674 -50.6587682 30.15403837 -50.875 24.875 C-50.93646946 16.14633699 -46.63269429 8.67142337 -40.6875 2.4375 C-28.21792185 -7.6590525 -13.76318937 -8.22065287 0 0 Z " fill="#34A570" transform="translate(154.6875,37.5625)"/>
<path d="M0 0 C-0.23783203 1.12341797 -0.23783203 1.12341797 -0.48046875 2.26953125 C-4.33439178 29.94243719 2.12146277 57.03462088 18 80 C20.84596015 83.49478008 23.85322592 86.77545393 27 90 C27.825 90.86625 28.65 91.7325 29.5 92.625 C32.56935463 95.5408869 35.73151963 98.34129879 38.9140625 101.1328125 C40.67146006 102.70591369 42.35396568 104.3120285 44 106 C23.00978018 105.05236028 3.00093975 94.16616088 -11.32421875 79.0234375 C-28.2412157 58.59685377 -35.14941618 35.32964981 -34 9 C-33.70699451 6.99369521 -33.38925513 4.98987225 -33 3 C-32.30438965 2.94465088 -31.6087793 2.88930176 -30.89208984 2.83227539 C-27.71950822 2.57833145 -24.54725817 2.32045179 -21.375 2.0625 C-20.28058594 1.97548828 -19.18617188 1.88847656 -18.05859375 1.79882812 C-16.46337891 1.66831055 -16.46337891 1.66831055 -14.8359375 1.53515625 C-13.86188965 1.456604 -12.8878418 1.37805176 -11.88427734 1.29711914 C-9.85562537 1.08814086 -7.83399078 0.80423159 -5.82275391 0.46655273 C-3 0 -3 0 0 0 Z " fill="#E8413E" transform="translate(194,341)"/>
<path d="M0 0 C16.47941438 16.47941438 16.31605683 61.53314523 16.38113403 83.43988037 C16.32507996 103.1529057 14.1070163 123.19168915 8 142 C6.97916667 141.125 5.95833333 140.25 4.9375 139.375 C4.29167969 138.82714844 3.64585937 138.27929688 2.98046875 137.71484375 C1.75112081 136.65037877 0.54090904 135.56282269 -0.63671875 134.44140625 C-9.68669515 126.00498757 -19.8057173 124.43885654 -32 122 C-32 107.48 -32 92.96 -32 78 C-27.33994872 81.99432967 -22.95028736 85.94082918 -18.6875 90.3125 C-14.22086296 95.31930301 -14.22086296 95.31930301 -8.0625 97.1875 C-4.82568546 97.2469358 -4.82568546 97.2469358 -2 95 C-0.6907238 91.0721714 -0.82243124 87.31041188 -0.79467773 83.21411133 C-0.78477814 82.31634476 -0.77487854 81.41857819 -0.76467896 80.49360657 C-0.73306544 77.52310838 -0.70830705 74.5525942 -0.68359375 71.58203125 C-0.6630241 69.52365196 -0.64202762 67.46527689 -0.62062073 65.40690613 C-0.56540122 59.98673928 -0.51599137 54.56653432 -0.46777344 49.14630127 C-0.41755757 43.61637984 -0.36187194 38.08651383 -0.30664062 32.55664062 C-0.19906051 21.70447441 -0.09761517 10.8522601 0 0 Z " fill="#E6EBEF" transform="translate(464,174)"/>
<path d="M0 0 C0.01030746 0.82970306 0.02061493 1.65940613 0.03123474 2.51425171 C0.12959728 10.36962071 0.23216325 18.22492151 0.33933926 26.0801754 C0.39428162 30.11771524 0.44765238 34.15526258 0.49731445 38.19287109 C0.54538536 42.09625525 0.59773739 45.99956153 0.65294075 49.9028511 C0.67317266 51.38500632 0.69191466 52.86718271 0.70907402 54.34937668 C0.8018405 62.2753456 0.99735245 70.12751828 2 78 C-6.83442922 77.66662531 -14.27438615 73.77666029 -20.8125 67.875 C-29.32292942 58.66900664 -32.51953071 46.71481202 -32.3125 34.5 C-31.40354065 24.31965523 -25.54438622 15.02497358 -18.125 8.1875 C-13.04575691 3.99371882 -6.80635957 0 0 0 Z " fill="#E6EBEF" transform="translate(336,321)"/>
<path d="M0 0 C4.98592875 4.17777765 9.66704284 8.53127277 14.24609375 13.1484375 C14.90207047 13.80582916 15.55804718 14.46322083 16.23390198 15.14053345 C18.30415268 17.21632862 20.37087651 19.29559427 22.4375 21.375 C23.85067862 22.7932008 25.26408794 24.21117176 26.67773438 25.62890625 C30.12116065 29.08328777 33.56143099 32.5407837 37 36 C35.09718844 37.90281156 33.78593025 38.71832995 31.41015625 39.875 C30.70826172 40.22046875 30.00636719 40.5659375 29.28320312 40.921875 C28.55037109 41.27765625 27.81753906 41.6334375 27.0625 42 C25.61498027 42.70648178 24.1683312 43.41475089 22.72265625 44.125 C22.08078369 44.43695313 21.43891113 44.74890625 20.77758789 45.0703125 C18.74569119 46.09304021 18.74569119 46.09304021 16 48 C15.90203125 47.37351562 15.8040625 46.74703125 15.703125 46.1015625 C15.47882813 44.87566406 15.47882813 44.87566406 15.25 43.625 C15.11078125 42.81289063 14.9715625 42.00078125 14.828125 41.1640625 C14.17917482 38.92365842 14.17917482 38.92365842 12.40625 37.71875 C9.02199749 36.70786938 5.74398151 36.78913656 2.25 36.875 C1.55261719 36.88402344 0.85523438 36.89304687 0.13671875 36.90234375 C-1.57566958 36.92580112 -3.28788004 36.96166896 -5 37 C-4.91959473 36.44763672 -4.83918945 35.89527344 -4.75634766 35.32617188 C-3.04856777 23.56417291 -1.41874528 11.80062254 0 0 Z " fill="#E5EAEE" transform="translate(336,220)"/>
<path d="M0 0 C2.52401251 2.12963556 2.89813059 3.55177458 3.625 6.75 C2.95620392 10.22773961 2.37796064 11.01458407 0.08203125 13.55078125 C-0.5531543 14.25251465 -1.18833984 14.95424805 -1.84277344 15.67724609 C-2.5546582 16.44375488 -3.26654297 17.21026367 -4 18 C-4.76602539 18.82709473 -5.53205078 19.65418945 -6.32128906 20.50634766 C-8.83161176 23.17886814 -11.37960753 25.81052717 -13.9375 28.4375 C-14.79279297 29.34693359 -15.64808594 30.25636719 -16.52929688 31.19335938 C-23.65317091 38.46938328 -23.65317091 38.46938328 -28.4765625 39.15625 C-32 39 -32 39 -34.4375 38.0625 C-36.33394213 35.55919639 -37.11536771 33.28860214 -37.34716797 30.15185547 C-36.90808422 27.43027732 -35.99928644 26.39682522 -34.1328125 24.3828125 C-33.494646 23.6906665 -32.85647949 22.99852051 -32.19897461 22.28540039 C-28.07360737 17.99789481 -23.90392226 13.76052332 -19.6875 9.5625 C-18.78193359 8.65306641 -17.87636719 7.74363281 -16.94335938 6.80664062 C-16.07904297 5.94361328 -15.21472656 5.08058594 -14.32421875 4.19140625 C-13.54135498 3.40967041 -12.75849121 2.62793457 -11.9519043 1.82250977 C-8.20504124 -1.67596837 -4.76919586 -1.24837847 0 0 Z " fill="#040201" transform="translate(397,153)"/>
<path d="M0 0 C2.52401251 2.12963556 2.89813059 3.55177458 3.625 6.75 C2.95620392 10.22773961 2.37796064 11.01458407 0.08203125 13.55078125 C-0.5531543 14.25251465 -1.18833984 14.95424805 -1.84277344 15.67724609 C-2.5546582 16.44375488 -3.26654297 17.21026367 -4 18 C-4.76602539 18.82709473 -5.53205078 19.65418945 -6.32128906 20.50634766 C-8.83161176 23.17886814 -11.37960753 25.81052717 -13.9375 28.4375 C-14.79279297 29.34693359 -15.64808594 30.25636719 -16.52929688 31.19335938 C-23.65317091 38.46938328 -23.65317091 38.46938328 -28.4765625 39.15625 C-32 39 -32 39 -34.4375 38.0625 C-36.33394213 35.55919639 -37.11536771 33.28860214 -37.34716797 30.15185547 C-36.90808422 27.43027732 -35.99928644 26.39682522 -34.1328125 24.3828125 C-33.494646 23.6906665 -32.85647949 22.99852051 -32.19897461 22.28540039 C-28.07360737 17.99789481 -23.90392226 13.76052332 -19.6875 9.5625 C-18.78193359 8.65306641 -17.87636719 7.74363281 -16.94335938 6.80664062 C-16.07904297 5.94361328 -15.21472656 5.08058594 -14.32421875 4.19140625 C-13.54135498 3.40967041 -12.75849121 2.62793457 -11.9519043 1.82250977 C-8.20504124 -1.67596837 -4.76919586 -1.24837847 0 0 Z " fill="#040201" transform="translate(373,129)"/>
<path d="M0 0 C2.52401251 2.12963556 2.89813059 3.55177458 3.625 6.75 C2.95620392 10.22773961 2.37796064 11.01458407 0.08203125 13.55078125 C-0.5531543 14.25251465 -1.18833984 14.95424805 -1.84277344 15.67724609 C-2.5546582 16.44375488 -3.26654297 17.21026367 -4 18 C-4.76602539 18.82709473 -5.53205078 19.65418945 -6.32128906 20.50634766 C-8.83161176 23.17886814 -11.37960753 25.81052717 -13.9375 28.4375 C-14.79279297 29.34693359 -15.64808594 30.25636719 -16.52929688 31.19335938 C-23.65317091 38.46938328 -23.65317091 38.46938328 -28.4765625 39.15625 C-32 39 -32 39 -34.4375 38.0625 C-36.33394213 35.55919639 -37.11536771 33.28860214 -37.34716797 30.15185547 C-36.90808422 27.43027732 -35.99928644 26.39682522 -34.1328125 24.3828125 C-33.494646 23.6906665 -32.85647949 22.99852051 -32.19897461 22.28540039 C-28.07360737 17.99789481 -23.90392226 13.76052332 -19.6875 9.5625 C-18.78193359 8.65306641 -17.87636719 7.74363281 -16.94335938 6.80664062 C-16.07904297 5.94361328 -15.21472656 5.08058594 -14.32421875 4.19140625 C-13.54135498 3.40967041 -12.75849121 2.62793457 -11.9519043 1.82250977 C-8.20504124 -1.67596837 -4.76919586 -1.24837847 0 0 Z " fill="#040201" transform="translate(349,105)"/>
<path d="M0 0 C6.93 3.96 6.93 3.96 14 8 C20.77769489 10.85819942 26.25885675 11.39648172 33.5625 11.1875 C34.47580078 11.17396484 35.38910156 11.16042969 36.33007812 11.14648438 C38.55403259 11.11155315 40.77667952 11.06251586 43 11 C31.75196725 22.56599834 16.59969516 31.27027834 2 38 C1.34 38 0.68 38 0 38 C0 25.46 0 12.92 0 0 Z " fill="#E6EBEF" transform="translate(352,420)"/>
<path d="M0 0 C3.29574447 1.57791539 6.3764792 3.41907543 9.5 5.3125 C15.45405463 8.81747305 21.5596878 11.52207846 28 14 C27.67 14.99 27.34 15.98 27 17 C17.2138195 12.58302522 7.85716782 8.12158467 -1 2 C-0.67 1.34 -0.34 0.68 0 0 Z " fill="#BEC2C5" transform="translate(138,444)"/>
<path d="M0 0 C1.21527577 3.64582731 0.65504434 4.48903009 -0.8125 7.9375 C-1.16957031 8.79214844 -1.52664062 9.64679688 -1.89453125 10.52734375 C-2.25933594 11.34332031 -2.62414063 12.15929687 -3 13 C-3.31324219 13.74378906 -3.62648438 14.48757812 -3.94921875 15.25390625 C-5 17 -5 17 -8 18 C-6.65150163 13.64029169 -4.95092154 9.68658562 -2.875 5.625 C-2.33617187 4.56539062 -1.79734375 3.50578125 -1.2421875 2.4140625 C-0.83226562 1.61742187 -0.42234375 0.82078125 0 0 Z " fill="#B7BBBE" transform="translate(59,148)"/>
<path d="M0 0 C3.77727089 1.81309003 7.37269822 3.9073259 11 6 C10.34 6.66 9.68 7.32 9 8 C5.7 6.02 2.4 4.04 -1 2 C-0.67 1.34 -0.34 0.68 0 0 Z " fill="#CCD1D4" transform="translate(138,444)"/>
<path d="M0 0 C6.75 0.875 6.75 0.875 9 2 C8.67 2.99 8.34 3.98 8 5 C5.36 3.68 2.72 2.36 0 1 C0 0.67 0 0.34 0 0 Z " fill="#CFD3D7" transform="translate(157,456)"/>
</svg>
